<?xml version="1.0" encoding="UTF-8" standalone="no"?>
<svg width="169px" height="32px" viewBox="0 0 169 32" version="1.1" xmlns="http://www.w3.org/2000/svg" xmlns:xlink="http://www.w3.org/1999/xlink" xmlns:sketch="http://www.bohemiancoding.com/sketch/ns">
    <!-- Generator: Sketch 3.4.4 (17249) - http://www.bohemiancoding.com/sketch -->
    <title>logotype_bluegreen</title>
    <desc>Created with Sketch.</desc>
    <defs></defs>
    <g id="Page-1" stroke="none" stroke-width="1" fill="none" fill-rule="evenodd" sketch:type="MSPage">
        <g id="Error-404" sketch:type="MSArtboardGroup" transform="translate(-636.000000, -148.000000)">
            <g id="logotype_bluegreen" sketch:type="MSLayerGroup" transform="translate(636.000000, 148.000000)">
                <g id="Capa_1" sketch:type="MSShapeGroup">
                    <g id="Group">
                        <path d="M44.6201769,12.653885 L43.6022968,14.1808949 C42.7061981,13.6106848 41.8510725,13.3052828 40.8942728,13.3052828 C39.8559061,13.3052828 39.2655887,13.7328455 39.2655887,14.3842433 C39.2655887,15.0967214 39.6927721,15.4222306 41.5255633,15.9317398 C43.7248369,16.5224365 44.9661727,17.4181558 44.9661727,19.3317553 C44.9661727,21.5712433 42.8894392,22.7526368 40.4264956,22.7526368 C38.5735972,22.7526368 37.1277749,22.1209668 36.130002,21.2252475 L37.4331769,19.759318 C38.2681952,20.390988 39.2655887,20.817792 40.3654152,20.817792 C41.5255633,20.817792 42.2790147,20.3287694 42.2790147,19.5149965 C42.2790147,18.6192771 41.8518313,18.3343618 39.8361783,17.764531 C37.6164181,17.1541064 36.6391318,16.0952531 36.6391318,14.5071628 C36.6391318,12.7153448 38.2886818,11.3708174 40.792978,11.3708174 C42.3400951,11.3708174 43.6026762,11.8594605 44.6201769,12.653885" id="Shape" fill="#FFFFFF"></path>
                        <path d="M56.6530147,17.0311869 C56.6530147,20.3299076 55.1260048,22.7530162 52.3978736,22.7530162 C51.2984265,22.7530162 50.361734,22.3660472 49.6898497,21.5712433 L49.6898497,26.601081 L47.0834999,26.885617 L47.0834999,11.6769781 L49.3639611,11.6769781 L49.5066085,13.0002602 C50.361734,11.8803265 51.5218821,11.3711967 52.6217086,11.3711967 C55.4720006,11.3711967 56.6530147,13.5901982 56.6530147,17.0311869 M53.9248835,17.0516735 C53.9248835,14.3235423 53.1919188,13.3257694 51.8481501,13.3257694 C50.9520514,13.3257694 50.1986,13.9570599 49.6898497,14.7916988 L49.6898497,19.6371573 C50.1986,20.3906086 50.8503772,20.757091 51.6649089,20.757091 C53.0898652,20.7574703 53.9248835,19.6576438 53.9248835,17.0516735" id="Shape" fill="#FFFFFF"></path>
                        <path d="M62.1502502,7.80842663 C62.1502502,8.68327998 61.4783659,9.3760303 60.5007002,9.3760303 C59.5439004,9.3760303 58.8720161,8.68327998 58.8720161,7.80842663 C58.8720161,6.91232791 59.5439004,6.22033636 60.5007002,6.22033636 C61.4779865,6.22033636 62.1502502,6.91232791 62.1502502,7.80842663 L62.1502502,7.80842663 Z M61.8239823,22.4476142 L59.2176325,22.4476142 L59.2176325,11.6769781 L61.8239823,11.6769781 L61.8239823,22.4476142 L61.8239823,22.4476142 Z" id="Shape" fill="#FFFFFF"></path>
                        <path d="M73.7551459,14.6494308 L73.7551459,22.4476142 L71.1487961,22.4476142 L71.1487961,15.056507 C71.1487961,13.712359 70.6404251,13.3257694 69.825514,13.3257694 C68.8888215,13.3257694 68.1968299,13.9570599 67.56516,14.9544534 L67.56516,22.4472348 L64.9591896,22.4472348 L64.9591896,11.6765987 L67.2191642,11.6765987 L67.4232714,13.1019344 C68.2582897,12.0229739 69.3368708,11.3711967 70.7011261,11.3711967 C72.6355915,11.3711967 73.7551459,12.5924253 73.7551459,14.6494308" id="Shape" fill="#FFFFFF"></path>
                        <path d="M84.03638,12.653885 L83.4468214,13.4274436 C82.7536917,12.87772 82.0620796,12.5928046 81.0847932,12.5928046 C79.1503278,12.5928046 77.7864519,14.0993279 77.7864519,17.1738342 C77.7864519,20.227854 79.1302206,21.6323237 81.064686,21.6323237 C82.0624589,21.6323237 82.7749371,21.3064351 83.5283884,20.7366044 L84.0982192,21.5302701 C83.2635802,22.2431276 82.2457001,22.6714492 81.0441994,22.6714492 C78.3164476,22.6714492 76.5234914,20.6557961 76.5234914,17.1943208 C76.5234914,13.7738187 78.2948229,11.5745451 81.0240922,11.5745451 C82.2244548,11.5745451 83.1410401,11.8799471 84.03638,12.653885" id="Shape" fill="#FFFFFF"></path>
                        <path d="M94.8882037,17.0926466 C94.8882037,20.533256 93.178332,22.6714492 90.3693926,22.6714492 C87.5380697,22.6714492 85.8691712,20.5537426 85.8691712,17.1332404 C85.8691712,13.712359 87.5999089,11.5745451 90.3887411,11.5745451 C93.2181671,11.5745451 94.8882037,13.6106848 94.8882037,17.0926466 M87.1313729,17.1332404 C87.1313729,20.1261798 88.3328736,21.6732969 90.3690132,21.6732969 C92.4043941,21.6732969 93.6464886,20.1466664 93.6464886,17.0926466 C93.6464886,14.0993279 92.4453673,12.5726974 90.3883617,12.5726974 C88.3727087,12.5726974 87.1313729,14.0792207 87.1313729,17.1332404" id="Shape" fill="#FFFFFF"></path>
                        <path d="M111.50245,14.832672 L111.50245,22.4476142 L110.320678,22.4476142 L110.320678,14.9954266 C110.320678,13.264689 109.608199,12.5317242 108.509511,12.5317242 C107.226443,12.5317242 106.331483,13.4274436 105.516951,14.7298597 L105.516951,22.4472348 L104.335937,22.4472348 L104.335937,14.9954266 C104.335937,13.264689 103.62308,12.5317242 102.523632,12.5317242 C101.240944,12.5317242 100.325497,13.4274436 99.5310725,14.7298597 L99.5310725,22.4472348 L98.3492996,22.4472348 L98.3492996,11.7987595 L99.3675591,11.7987595 L99.4696127,13.5909569 C100.264037,12.3894562 101.364243,11.5753039 102.748226,11.5753039 C104.112481,11.5753039 105.049174,12.3488624 105.375063,13.6922517 C106.210081,12.43005 107.308769,11.5753039 108.734105,11.5753039 C110.442838,11.5749245 111.50245,12.817019 111.50245,14.832672" id="Shape" fill="#FFFFFF"></path>
                        <path d="M128.868631,14.832672 L128.868631,22.4476142 L127.687617,22.4476142 L127.687617,14.9954266 C127.687617,13.264689 126.975139,12.5317242 125.877209,12.5317242 C124.593383,12.5317242 123.697663,13.4274436 122.883132,14.7298597 L122.883132,22.4472348 L121.702876,22.4472348 L121.702876,14.9954266 C121.702876,13.264689 120.990019,12.5317242 119.890572,12.5317242 C118.607883,12.5317242 117.692436,13.4274436 116.897253,14.7298597 L116.897253,22.4472348 L115.716239,22.4472348 L115.716239,11.7987595 L116.734498,11.7987595 L116.837311,13.5909569 C117.630977,12.3894562 118.730044,11.5753039 120.114407,11.5753039 C121.479421,11.5753039 122.414975,12.3488624 122.741243,13.6922517 C123.576641,12.43005 124.675709,11.5753039 126.101044,11.5753039 C127.809778,11.5749245 128.868631,12.817019 128.868631,14.832672" id="Shape" fill="#FFFFFF"></path>
                        <path d="M140.596067,17.5812898 L133.491013,17.5812898 C133.632522,20.4717962 134.976671,21.6732969 136.808324,21.6732969 C137.969989,21.6732969 138.743548,21.3064351 139.679482,20.614823 L140.229205,21.3682743 C139.232191,22.1824266 138.151713,22.6714492 136.747623,22.6714492 C133.937545,22.6714492 132.228053,20.6353095 132.228053,17.2144281 C132.228053,13.8144125 133.876844,11.5745451 136.483194,11.5745451 C139.251539,11.5745451 140.636281,13.5905775 140.636281,16.7257849 C140.63704,17.0516735 140.617312,17.3771826 140.596067,17.5812898 L140.596067,17.5812898 Z M139.476133,16.3600613 C139.476133,14.0386269 138.539441,12.5518315 136.524546,12.5518315 C134.875755,12.5518315 133.612415,13.7943053 133.470906,16.6650839 L139.476133,16.6650839 L139.476133,16.3600613 L139.476133,16.3600613 Z" id="Shape" fill="#FFFFFF"></path>
                        <path d="M149.22813,11.6970853 L149.004295,12.817019 C148.698514,12.7358314 148.434085,12.6948582 148.068362,12.6948582 C146.581566,12.6948582 145.767414,13.7734393 145.217311,15.9727129 L145.217311,22.446476 L144.037056,22.446476 L144.037056,11.7991389 L145.054556,11.7991389 L145.15661,14.1812743 C145.72682,12.4304294 146.68362,11.5753039 148.169277,11.5753039 C148.577491,11.5749245 148.943215,11.6155183 149.22813,11.6970853" id="Shape" fill="#FFFFFF"></path>
                        <path d="M158.084408,12.653885 L157.49485,13.4274436 C156.80172,12.87772 156.110108,12.5928046 155.132442,12.5928046 C153.197977,12.5928046 151.83448,14.0993279 151.83448,17.1738342 C151.83448,20.227854 153.177869,21.6323237 155.112335,21.6323237 C156.110108,21.6323237 156.822965,21.3064351 157.576037,20.7366044 L158.146247,21.5302701 C157.311608,22.2431276 156.293349,22.6714492 155.092607,22.6714492 C152.364096,22.6714492 150.572278,20.6557961 150.572278,17.1943208 C150.572278,13.7738187 152.342851,11.5745451 155.07212,11.5745451 C156.273242,11.5745451 157.189448,11.8799471 158.084408,12.653885" id="Shape" fill="#FFFFFF"></path>
                        <path d="M168.285593,17.5812898 L161.180539,17.5812898 C161.322049,20.4717962 162.666197,21.6732969 164.49785,21.6732969 C165.659515,21.6732969 166.433453,21.3064351 167.369008,20.614823 L167.918731,21.3682743 C166.920958,22.1824266 165.841618,22.6714492 164.437149,22.6714492 C161.627451,22.6714492 159.91682,20.6353095 159.91682,17.2144281 C159.91682,13.8144125 161.56637,11.5745451 164.17272,11.5745451 C166.941445,11.5745451 168.325807,13.5905775 168.325807,16.7257849 C168.326187,17.0516735 168.306459,17.3771826 168.285593,17.5812898 L168.285593,17.5812898 Z M167.16528,16.3600613 C167.16528,14.0386269 166.228587,12.5518315 164.213693,12.5518315 C162.564902,12.5518315 161.301562,13.7943053 161.159294,16.6650839 L167.16528,16.6650839 L167.16528,16.3600613 L167.16528,16.3600613 Z" id="Shape" fill="#FFFFFF"></path>
                        <g id="Shape">
                            <path d="M21.4096268,22.6835894 C21.3136434,22.4214369 21.1892063,22.1543524 21.0298661,21.8830948 L17.3502466,15.6369605 L17.353661,15.6346842 L13.5162188,9.11918914 C12.8974478,8.0690616 12.9862231,7.3964185 13.5606064,7.05801035 C14.1349898,6.7196022 14.7659009,6.96847635 15.3846719,8.01898327 L18.3855782,13.2240952 L18.391269,13.2210601 C18.4610751,13.3390477 18.5509885,13.4475508 18.6598709,13.5427755 C19.2137677,14.0242104 20.0529592,13.9661651 20.5351529,13.4126477 C20.9187074,12.9718066 20.9596806,12.3507593 20.6812147,11.8719801 L20.6827322,11.8712213 L17.4705105,6.3068353 C17.3157229,6.04392404 17.1480363,5.81212204 16.971624,5.60535922 L16.9739003,5.60535922 C16.9739003,5.60535922 15.2408863,2.69891881 12.0612914,4.49149562 C9.03231081,6.19909101 10.6120547,9.28118497 10.6120547,9.28118497 L10.614331,9.27777053 C10.7122114,9.55168386 10.8400629,9.83014976 11.0069907,10.1131682 L14.6866102,16.3604407 L14.6828164,16.362717 L18.5202586,22.8774532 C19.1394089,23.9283395 19.0506337,24.6006033 18.475871,24.9390114 C17.9014876,25.2774196 17.2705765,25.0289248 16.6518055,23.9784179 L13.0791715,17.9094547 C13.0055715,17.775533 12.9076911,17.6526135 12.7859097,17.5463867 C12.2297367,17.0630549 11.3867514,17.1214796 10.9026608,17.6772733 C10.4940671,18.1461886 10.472063,18.8207286 10.8097124,19.3101305 L14.5655876,25.6909452 C14.724169,25.9587884 14.8960287,26.1959018 15.0769936,26.4056996 C15.31221,26.7626975 16.9932487,29.0864082 19.9603901,27.4728993 C23.0815604,25.7755472 21.4096268,22.6828306 21.4096268,22.6828306 L21.4096268,22.6835894 L21.4096268,22.6835894 Z"></path>
                            <path d="M16.0292408,0.177171083 C7.30536698,0.177171083 0.234078283,7.24883916 0.234078283,15.9723336 C0.234078283,24.6965867 7.30574636,31.7678754 16.0292408,31.7678754 C24.7527352,31.7678754 31.8244032,24.6962073 31.8244032,15.9723336 C31.8244032,7.24883916 24.7527352,0.177171083 16.0292408,0.177171083 L16.0292408,0.177171083 Z M19.9611489,27.4728993 C16.9940075,29.0864082 15.3129688,26.7626975 15.0777524,26.4056996 C14.8967875,26.1959018 14.7249277,25.9587884 14.5663463,25.6909452 L10.8104711,19.3101305 C10.4728217,18.8207286 10.4948259,18.146568 10.9034196,17.6772733 C11.3875101,17.1214796 12.2304955,17.0630549 12.7866685,17.5463867 C12.9084499,17.6526135 13.0063303,17.775533 13.0799303,17.9094547 L16.6525643,23.9784179 C17.2713353,25.0293042 17.9022464,25.2774196 18.4766298,24.9390114 C19.0513925,24.6006033 19.1401677,23.9283395 18.5210174,22.8774532 L14.6835752,16.362717 L14.687369,16.3604407 L11.0077494,10.1131682 C10.8408216,9.83014976 10.7129701,9.55206324 10.6150897,9.27777053 L10.6128135,9.28118497 C10.6128135,9.28118497 9.03269019,6.19909101 12.0620501,4.49149562 C15.2412657,2.69891881 16.974659,5.60535922 16.974659,5.60535922 L16.9723828,5.60535922 C17.1487951,5.81212204 17.3164816,6.04392404 17.4712692,6.3068353 L20.683491,11.8712213 L20.6819734,11.8719801 C20.96006,12.35038 20.9190868,12.9718066 20.5359116,13.4126477 C20.053718,13.9661651 19.2145264,14.0242104 18.6606297,13.5427755 C18.5517473,13.4475508 18.4618339,13.3386683 18.3920277,13.2210601 L18.386337,13.2240952 L15.3854306,8.01898327 C14.7666597,6.96847635 14.1361279,6.7196022 13.5613652,7.05801035 C12.9866025,7.3964185 12.8982066,8.0690616 13.5169776,9.11918914 L17.353661,15.6343048 L17.3502466,15.6365811 L21.0298661,21.8827154 C21.1895857,22.1543524 21.3136434,22.4210575 21.4096268,22.68321 L21.4103856,22.6824512 C21.4103856,22.6828306 23.0823192,25.7755472 19.9611489,27.4728993 L19.9611489,27.4728993 Z" fill="#FFFFFF"></path>
                        </g>
                    </g>
                </g>
            </g>
        </g>
    </g>
</svg>