<?xml version="1.0" encoding="UTF-8" standalone="no"?>
<svg width="205px" height="187px" viewBox="0 0 205 187" version="1.1" xmlns="http://www.w3.org/2000/svg" xmlns:xlink="http://www.w3.org/1999/xlink" xmlns:sketch="http://www.bohemiancoding.com/sketch/ns">
    <!-- Generator: Sketch 3.4.4 (17249) - http://www.bohemiancoding.com/sketch -->
    <title>Oval 6 + spin_alert</title>
    <desc>Created with Sketch.</desc>
    <defs></defs>
    <g id="Page-1" stroke="none" stroke-width="1" fill="none" fill-rule="evenodd" sketch:type="MSPage">
        <g id="Error-500" sketch:type="MSArtboardGroup" transform="translate(-615.000000, -499.000000)">
            <g id="Oval-6-+-spin_alert" sketch:type="MSLayerGroup" transform="translate(602.000000, 487.000000)">
                <ellipse id="Oval-6" fill-opacity="0.0803894928" fill="#000000" sketch:type="MSShapeGroup" cx="126" cy="175.5" rx="92" ry="23.5"></ellipse>
                <g id="spin_alert" sketch:type="MSShapeGroup">
                    <g id="laptop-base" transform="translate(161.000000, 178.254967) scale(-1, 1) translate(-161.000000, -178.254967) translate(112.333333, 163.874172)">
                        <path d="M49.6679687,26.1843989 L50.6360677,28.5992698 L96.3689041,16.8732467 L96.8114971,13.3774834 L49.6679687,26.1843989 Z" id="Fill-81" fill="#CBCACA"></path>
                        <path d="M40.0250703,0 L96.9183954,14.2065607 L52.0097656,25.546225 L0.0205078125,12.7731125 L40.0250703,0 Z" id="Fill-85" fill="#9D9D9C"></path>
                    </g>
                    <g id="spin" transform="translate(90.173646, 101.133274) rotate(-13.000000) translate(-90.173646, -101.133274) translate(18.673646, 14.133274)">
                        <path d="M55.5807294,158.26739 C55.5807294,158.26739 62.2988421,152.746979 62.2988421,152.746979 L60.5742188,134.718551 C60.5742188,134.718551 57.15625,131.013531 55.5807292,129.681857 C54.0052083,128.350183 46.7359255,127.115193 46.7359255,127.115193 C46.7359255,127.115193 46.5419512,134.009608 49.3596595,136.677861 C52.1773678,139.346113 55.5807294,158.26739 55.5807294,158.26739 Z" id="Path-172-Copy-2" fill="#BBBABA"></path>
                        <path d="M85.2773438,167.951038 L88.3956649,166.436603 L85.2773438,158.822339 L81.0664063,158.432401 L85.2773438,167.951038 Z" id="Path-194" fill="#BBBABA"></path>
                        <path d="M38.3178107,154.438874 C38.3178107,154.438874 28.7252607,113.533779 35.280599,90.8940972 C41.8359372,68.2544156 62.233463,46.4589858 87.3584612,46.4589858 C112.483459,46.4589858 136.84386,63.4812881 140.479275,88.3784389 C142.496375,102.192556 130.801432,128.008681 129.162109,136.968663 C127.522786,145.928646 125.886068,161.101267 125.886068,161.101267 C131.94753,164.583115 126.509501,176.403867 113.848043,172.676161 C101.186584,168.948455 81.889319,159.323862 81.8893223,159.323862 C81.8893256,159.323862 86.1342022,168.348934 86.1342022,168.348934 C90.2983603,168.348934 78.055555,168.219555 77.3014232,167.493562 C76.5472915,166.767568 74.1339072,161.101269 69.8098953,153.28596 C64.9983887,144.589542 45.7420309,122.775548 48.2682292,128.223882 C50.7944274,133.672217 55.6297237,156.629725 55.6297237,157.976791 C55.6297237,159.323858 38.3178107,154.438874 38.3178107,154.438874 Z" id="Path-168-Copy-2" fill="#D8D8D8"></path>
                        <path d="M116.121501,166.000915 C112.204834,171.675858 79.6813971,139.642111 76.6918137,130.406229 C73.7022304,121.170348 80.4600429,100.952449 95.8376471,109.359406 C111.215251,117.766364 112.204835,126.781526 112.204835,126.781526 C112.204835,126.781526 116.163168,107.819276 125.928793,117.300401 C135.694417,126.781526 128.767335,136.605993 128.767335,136.605993 L126.293376,161.140183 C126.293376,161.140183 120.038168,160.325971 116.121501,166.000915 Z" id="Path-169-Copy-2" fill="#E9EAEC"></path>
                        <path d="M97.5654413,132.093461 C97.5654413,132.093461 103.082682,128.057387 105.233073,131.293379 C107.383464,134.529371 101.744847,138.681026 101.744847,138.681026 C101.744847,138.681026 98,136.985487 98,134.139433 C98,131.293379 97.5654413,132.093461 97.5654413,132.093461 Z" id="Path-170-Copy-4" fill="#33548F" transform="translate(101.643753, 134.358931) scale(1, -1) translate(-101.643753, -134.358931) "></path>
                        <path d="M124.590919,132.880665 C124.590919,132.880665 120.120082,129.644673 117.969692,132.880665 C115.819301,136.116657 120.887172,139.074743 120.887172,139.074743 C120.887172,139.074743 124.590919,138.15699 124.590919,135.310936 L124.590919,132.880665 Z" id="Path-170-Copy-5" fill="#33548F" transform="translate(121.014494, 135.258595) scale(1, -1) translate(-121.014494, -135.258595) "></path>
                        <path d="M77.4545062,130.432288 C77.4545062,130.432288 42.3451312,81.1235696 37.8711728,88.6182202 C33.3972145,96.1128707 34.0638812,104.073485 34.0638812,104.073485 C34.0638812,104.073485 29.8321062,42.8949657 90.2539856,46.6226715 C150.675865,50.3503773 144.931073,100.007342 138.863365,114.000954 C132.795657,127.994565 131.70711,128.161331 131.70711,128.161331 C131.70711,128.161331 128.394608,110.435109 120.780027,114.000954 C113.165446,117.566799 112.024819,126.297478 112.024819,126.297478 C112.024819,126.297478 103.053462,106.545542 90.2539853,106.545542 C77.4545084,106.545542 77.4545062,130.432288 77.4545062,130.432288 Z" id="Path-173-Copy-2" fill="#33548F"></path>
                        <path d="M61.1596743,92.4789852 L0.511903185,53.3350089 L64.7890625,89.5574149 L61.1596743,92.4789852 Z" id="Path-186" fill="#374B66"></path>
                        <path d="M74.0596638,62.1211621 L73.927916,-3.81113439 L78.3581541,62.7146072 L74.0596638,62.1211621 Z" id="Path-186-Copy" fill="#374B66"></path>
                        <path d="M62.296875,75.7634875 L29.6822917,24.0556559 L69.7604167,73.4227949 L62.296875,75.7634875 Z" id="Path-187" fill="#374B66"></path>
                        <path d="M124.34829,79.2744805 L138.351561,19.7654956 L116.529318,79.4912037 L124.34829,79.2744805 Z" id="Path-187-Copy-3" fill="#374B66"></path>
                        <path d="M81.8988677,78.1289538 L85.9062163,17.1260682 L89.3128243,80.6222534 L81.8988677,78.1289538 Z" id="Path-187-Copy" fill="#374B66"></path>
                        <path d="M74.0585419,92.3865471 L61.2843771,37.8881004 L81.0971234,89.9601083 L74.0585419,92.3865471 Z" id="Path-187-Copy-5" fill="#374B66"></path>
                        <path d="M99.9130829,70.4218499 L104.0541,9.23498558 L107.33309,72.9068213 L99.9130829,70.4218499 Z" id="Path-187-Copy-2" fill="#374B66"></path>
                        <path d="M92.9584249,85.810545 L127.942029,28.1889076 L101.81766,89.5771754 L92.9584249,85.810545 Z" id="Path-187-Copy-4" fill="#374B66"></path>
                        <path d="M95.7951448,131.768212 C95.7951448,131.768212 93.9722282,137.013387 97.5698844,139.009559" id="Path-247" stroke="#33548F" stroke-linecap="round" stroke-linejoin="round"></path>
                        <path d="M125.624135,133.636471 C125.624135,133.636471 124.137979,137.912666 127.071013,139.540069" id="Path-247-Copy" stroke="#33548F" stroke-linecap="round" stroke-linejoin="round" transform="translate(126.159325, 136.588270) scale(-1, 1) translate(-126.159325, -136.588270) "></path>
                    </g>
                    <g id="laptop-tapa" transform="translate(182.163978, 162.536424) scale(-1, 1) translate(-182.163978, -162.536424) translate(151.830645, 132.437086)">
                        <path d="M3.01879613,46.6774887 L0.666666667,0.872018636 L58.5637156,7.87494832 L53.6437138,60.0818521 L3.01879613,46.6774887 Z" id="Fill-87" fill="#9D9D9C"></path>
                        <path d="M0.363522768,0.788735901 L2.84008519,0.106144583 L60.0878528,6.96892452 L58.0760662,7.87048989 L0.363522768,0.788735901 Z" id="Fill-89" fill="#DADADA"></path>
                        <path d="M53.7150538,60.1476728 L55.2919082,59.3269836 L59.9048642,7.21129975 L58.3664524,7.74659496 L53.7150538,60.1476728 Z" id="Fill-91" fill="#CBCACA"></path>
                    </g>
                    <g id="icon" transform="translate(186.666667, 162.870861) rotate(-10.000000) translate(-186.666667, -162.870861) translate(182.333333, 157.854305)">
                        <path d="M5.7984406,7.11209393 C5.77244508,7.02990001 5.73874337,6.94615975 5.69558874,6.86111104 L4.69902511,4.90273077 L4.69994985,4.90201708 L3.66064259,2.85918285 C3.49305879,2.52993136 3.51710208,2.31903436 3.67266424,2.21293164 C3.82822639,2.10682892 3.99909817,2.18485962 4.16668197,2.51423006 L4.97942744,4.14621362 L4.98096867,4.14526202 C4.99987451,4.18225523 5.02422605,4.21627472 5.05371505,4.24613098 C5.20372875,4.39707756 5.43100978,4.37887833 5.5616039,4.20533139 C5.66548325,4.06711237 5.67658016,3.87239247 5.60116231,3.72227853 L5.60157331,3.72204063 L4.73159658,1.97741215 C4.68967494,1.89498032 4.64425984,1.82230234 4.5964815,1.757475 L4.59709799,1.757475 C4.59709799,1.757475 4.12774005,0.846204885 3.26659975,1.40824004 C2.44625084,1.94363056 2.87409814,2.90997418 2.87409814,2.90997418 L2.87471464,2.90890363 C2.90122391,2.99478498 2.93585036,3.08209373 2.98105997,3.17082986 L3.9776236,5.12956697 L3.97659611,5.13028067 L5.01590337,7.172877 C5.18358992,7.50236639 5.15954663,7.71314444 5.00388173,7.81924716 C4.84831957,7.92534988 4.6774478,7.84743813 4.509864,7.51806769 L3.54227562,5.61523671 C3.52234229,5.57324763 3.49583302,5.53470808 3.46285055,5.50140229 C3.31222036,5.34986096 3.08391183,5.36817915 2.95280396,5.54243978 C2.84214317,5.68946104 2.83618372,5.90095279 2.92763043,6.0543973 L3.94484663,8.05500455 C3.98779576,8.13898271 4.03434111,8.21332599 4.08335244,8.27910492 C4.14705689,8.39103615 4.6023382,9.11960024 5.405939,8.61370913 C6.25125594,8.08153023 5.7984406,7.11185604 5.7984406,7.11185604 L5.7984406,7.11209393 L5.7984406,7.11209393 Z" id="Shape"></path>
                        <path d="M4.34125271,0.0555492945 C1.97853689,0.0555492945 0.0633962017,2.27276311 0.0633962017,5.0078819 C0.0633962017,7.7432386 1.97863964,9.96033346 4.34125271,9.96033346 C6.70386577,9.96033346 8.61910921,7.74311965 8.61910921,5.0078819 C8.61910921,2.27276311 6.70386577,0.0555492945 4.34125271,0.0555492945 L4.34125271,0.0555492945 Z M5.4061445,8.61370913 C4.6025437,9.11960024 4.14726238,8.39103615 4.08355794,8.27910492 C4.03454661,8.21332599 3.98800126,8.13898271 3.94505213,8.05500455 L2.92783593,6.0543973 C2.83638922,5.90095279 2.84234867,5.68957999 2.95300946,5.54243978 C3.08411733,5.36817915 3.31242585,5.34986096 3.46305605,5.50140229 C3.49603852,5.53470808 3.52254779,5.57324763 3.54248111,5.61523671 L4.5100695,7.51806769 C4.6776533,7.84755708 4.84852507,7.92534988 5.00408722,7.81924716 C5.15975213,7.71314444 5.18379542,7.50236639 5.01610887,7.172877 L3.97680161,5.13028067 L3.9778291,5.12956697 L2.98126547,3.17082986 C2.93605586,3.08209373 2.90142941,2.99490393 2.87492014,2.90890363 L2.87430364,2.90997418 C2.87430364,2.90997418 2.44635359,1.94363056 3.26680525,1.40824004 C4.1278428,0.846204885 4.59730349,1.757475 4.59730349,1.757475 L4.596687,1.757475 C4.64446533,1.82230234 4.68988044,1.89498032 4.73180208,1.97741215 L5.60177881,3.72204063 L5.60136781,3.72227853 C5.67668291,3.87227352 5.665586,4.06711237 5.5618094,4.20533139 C5.43121528,4.37887833 5.20393425,4.39707756 5.05392054,4.24613098 C5.02443155,4.21627472 5.00008001,4.18213629 4.98117417,4.14526202 L4.97963294,4.14621362 L4.16688746,2.51423006 C3.99930366,2.18485962 3.82853464,2.10682892 3.67286974,2.21293164 C3.51720483,2.31903436 3.49326429,2.52993136 3.66084809,2.85918285 L4.69994985,4.90189813 L4.69902511,4.90261182 L5.69558874,6.86099209 C5.73884612,6.94615975 5.77244508,7.02978106 5.7984406,7.11197499 L5.7986461,7.11173709 C5.7986461,7.11185604 6.25146144,8.08153023 5.4061445,8.61370913 L5.4061445,8.61370913 Z" id="Shape" fill="#FFFFFF"></path>
                    </g>
                </g>
            </g>
        </g>
    </g>
</svg>