<?xml version="1.0" encoding="UTF-8" standalone="no"?>
<svg width="169px" height="185px" viewBox="0 0 169 185" version="1.1" xmlns="http://www.w3.org/2000/svg" xmlns:xlink="http://www.w3.org/1999/xlink" xmlns:sketch="http://www.bohemiancoding.com/sketch/ns">
    <!-- Generator: Sketch 3.4.4 (17249) - http://www.bohemiancoding.com/sketch -->
    <title>Oval 6 + spin_sad</title>
    <desc>Created with Sketch.</desc>
    <defs></defs>
    <g id="Page-1" stroke="none" stroke-width="1" fill="none" fill-rule="evenodd" sketch:type="MSPage">
        <g id="Error-404" sketch:type="MSArtboardGroup" transform="translate(-623.000000, -416.000000)">
            <g id="Oval-6-+-spin_sad" sketch:type="MSLayerGroup" transform="translate(623.000000, 410.000000)">
                <ellipse id="Oval-6" fill-opacity="0.0803894928" fill="#000000" sketch:type="MSShapeGroup" cx="84.5" cy="167.5" rx="84.5" ry="23.5"></ellipse>
                <g id="spin_sad" transform="translate(84.626767, 94.572742) rotate(-3.000000) translate(-84.626767, -94.572742) translate(4.626767, 4.072742)" sketch:type="MSShapeGroup">
                    <path d="M63.0290301,167.583775 C63.0290301,167.583775 69.1158693,158.585412 69.1158693,158.585412 L59.5911499,141.707654 C59.5911499,141.707654 56.3704378,138.000461 54.8858428,136.668006 C53.4012479,135.335552 45.2298411,128.779409 45.2298411,128.779409 C45.2298411,128.779409 46.8469453,139.037837 49.502039,141.707654 C52.1571328,144.377471 63.0290301,167.583775 63.0290301,167.583775 Z" id="Path-172-Copy-2" fill="#9B9B9B"></path>
                    <path d="M80.4969459,174.353406 L83.3753423,169.991028 L82.8686169,165.825573 L78.9006996,165.435407 L80.4969459,174.353406 Z" id="Path-194" fill="#9B9B9B"></path>
                    <path d="M51.221345,163.933635 C51.221345,163.933635 29.5802476,120.51046 35.7572665,97.8575046 C41.9342854,75.2045489 61.1546365,53.3963401 84.8296297,53.3963401 C108.504623,53.3963401 133.985674,70.4458701 137.411283,95.3576185 C139.311973,109.179835 125.765435,134.993849 124.220721,143.959085 C122.676006,152.924321 121.133745,168.105838 121.133745,168.105838 C126.84539,171.589728 121.721199,183.41741 109.790454,179.687519 C97.8597092,175.957627 79.6761207,166.327391 79.6761238,166.327391 C79.6761269,166.327391 80.5681077,174.912276 80.5681077,174.912276 C84.4919454,174.912276 73.0224392,175.210422 72.1353631,173.03138 C71.2482869,170.852338 70.7214588,168.47056 68.2938203,160.285948 C65.4175185,150.588701 43.6225528,121.992601 47.9953592,135.209177 C52.3681656,148.425753 65.53689,168.105838 63.0241218,168.105838 C60.5113536,168.105838 51.221345,163.933635 51.221345,163.933635 Z" id="Path-168-Copy-2" fill="#D8D8D8"></path>
                    <path d="M111.932707,173.008359 C108.242077,178.686629 77.5956215,146.6341 74.778572,137.392803 C71.9615224,128.151507 78.3293304,107.921754 92.8194678,116.33364 C107.309605,124.745527 108.242078,133.765975 108.242078,133.765975 C108.242078,133.765975 111.97197,114.792607 121.174004,124.279291 C130.376038,133.765974 123.848729,143.596202 123.848729,143.596202 L121.517547,168.144777 C121.517547,168.144777 115.623337,167.330088 111.932707,173.008359 Z" id="Path-169-Copy-2" fill="#E9EAEC"></path>
                    <path d="M97.4311436,141.721437 C97.4311436,141.721437 99.6463801,137.429608 101.672668,140.667497 C103.698956,143.905387 100.350029,145.501633 100.350029,145.501633 C100.350029,145.501633 94.8570278,146.362943 94.8570278,143.51522 C94.8570278,140.667497 97.4311436,141.721437 97.4311436,141.721437 Z" id="Path-170-Copy-4" fill="#33548F"></path>
                    <path d="M117.339225,142.349629 C117.339225,142.349629 115.123989,138.0578 113.097701,141.29569 C111.071413,144.533579 114.42034,146.129825 114.42034,146.129825 C114.42034,146.129825 119.913341,146.991136 119.913341,144.143413 C119.913341,141.29569 117.339225,142.349629 117.339225,142.349629 Z" id="Path-170-Copy-5" fill="#33548F"></path>
                    <path d="M75.4972482,137.418878 C75.4972482,137.418878 42.414093,88.0812483 38.1983341,95.5802932 C33.9825753,103.079338 34.6107675,111.044619 34.6107675,111.044619 C34.6107675,111.044619 30.6232153,49.8302304 87.5580486,53.5601218 C144.492882,57.2900132 139.079632,106.976093 133.362101,120.977909 C127.64457,134.979725 126.618845,135.146589 126.618845,135.146589 C126.618845,135.146589 123.497513,117.409973 116.322382,120.977909 C109.147251,124.545845 108.072451,133.281643 108.072451,133.281643 C108.072451,133.281643 99.6188464,113.518126 87.5580484,113.518126 C75.4972503,113.518126 75.4972482,137.418878 75.4972482,137.418878 Z" id="Path-173-Copy-2" fill="#33548F"></path>
                    <path d="M57.630055,98.8235962 C57.630055,98.8235962 36.6798847,68.6692574 0.413345595,51.7298847 C36.6798847,61.4489536 61.6449993,95.2882523 61.6449993,95.2882523 L57.630055,98.8235962 Z" id="Path-186" fill="#374B66"></path>
                    <path d="M70.5281117,60.0789213 C70.5281117,60.0789213 71.3761223,29.6572817 57.2171716,1.18960158 C75.1810762,19.6373696 75.5193497,60.5345752 75.5193497,60.5345752 L70.5281117,60.0789213 Z" id="Path-186-Copy" fill="#374B66"></path>
                    <path d="M128.349238,82.2756128 C128.349238,82.2756128 133.956378,63.3500043 159.866056,54.4285866 C140.862834,50.6830477 119.619667,82.2854213 119.619667,82.2854213 L128.349238,82.2756128 Z" id="Path-187-Copy-3" fill="#374B66"></path>
                    <path d="M84.2922671,77.9124584 C84.2922671,77.9124584 97.9720837,53.5359507 85.7066983,18.8615772 C101.512164,36.2026836 92.5801781,80.4374193 92.5801781,80.4374193 L84.2922671,77.9124584 Z" id="Path-187-Copy" fill="#374B66"></path>
                    <path d="M99.1401018,71.6135223 C99.1401018,71.6135223 118.77414,34.1444667 139.272588,30.4151214 C116.104998,43.0899975 107.48756,74.1634595 107.48756,74.1634595 L99.1401018,71.6135223 Z" id="Path-187-Copy-2" fill="#374B66"></path>
                    <path d="M59.8367831,72.9828185 C58.16484,70.6815862 43.4612244,45.8375501 17.5771991,40.1816468 C46.4066201,58.7242655 51.4861005,75.5339747 51.4861005,75.5339747 C51.4861005,75.5339747 58.16484,70.6815862 59.8367831,72.9828185 Z" id="Path-187-Copy-7" fill="#374B66"></path>
                    <path d="M103.008042,93.2134911 C103.008042,93.2134911 125.390672,48.9880507 138.565549,48.7083427 C121.826415,62.2634263 110.40798,97.8342266 110.40798,97.8342266 L103.008042,93.2134911 Z" id="Path-187-Copy-4" fill="#374B66"></path>
                    <path d="M79.6234625,85.2852742 C79.6234625,85.2852742 57.2408318,41.0598338 44.0659551,40.7801258 C60.8050891,54.3352094 72.2235241,89.9060097 72.2235241,89.9060097 L79.6234625,85.2852742 Z" id="Path-187-Copy-6" fill="#374B66"></path>
                </g>
            </g>
        </g>
    </g>
</svg>